{"title":"Michael Jackson - Man In The Mirror [-MJ- Story] [Cover] Bubanee","uid":5005939,"size":710579865,"categoryP":"video","categoryS":"movies","magnet":"?xt=urn:btih:773c8271130ef993a22ec47ab504af87dd915a44&amp;dn=Michael+Jackson+-+Man+In+The+Mirror+%5B-MJ-+Story%5D+%5BCover%5D+Bubanee&amp;tr=udp%3A%2F%2Ftracker.openbittorrent.com%3A80&amp;tr=udp%3A%2F%2Fopen.demonii.com%3A1337&amp;tr=udp%3A%2F%2Ftracker.coppersurfer.tk%3A6969&amp;tr=udp%3A%2F%2Fexodus.desync.com%3A6969","seeders":1,"leechers":1,"uploader":"bubanee","files":2,"time":1247731986,"description":"Man In The Mirror: The Michael Jackson Story, originally known as Family Values, is a 2004 biographical telefilm produced for VH1. The biopic stars Flex Alexander as Michael Jackson, and follows his rise to fame and subsequent controversial events. The film takes its title from one of Jackson's songs, &quot;Man in the Mirror&quot;.\n\nThe film originally aired on August 6, 2004 receiving, a TV rating of TV-PG for language. It is available on DVD, where it is distributed by Paramount Home Entertainment and is rated PG-13 for some brief language and thematic elements by the MPAA.\n\nFormat : AVI\nFormat/Info : Audio Video Interleave\nFile size : 676 MiB\nDuration : 1h 26mn\nOverall bit rate : 1 089 Kbps\nWriting application : MediaCoder 0.7\n\nVideo\nFormat : MPEG-4 Visual\nFormat profile : Simple@L3\nFormat settings, BVOP : No\nFormat settings, QPel : No\nFormat settings, GMC : No warppoints\nFormat settings, Matrix : Default (H.263)\nCodec ID : XVID\nCodec ID/Hint : XviD\nDuration : 1h 26mn\nBit rate : 948 Kbps\nWidth : 608 pixels\nHeight : 336 pixels\nDisplay aspect ratio : 16/9\nFrame rate : 25.000 fps\nResolution : 24 bits\nColorimetry : 4:2:0\nScan type : Progressive\nBits/(Pixel*Frame) : 0.186\nStream size : 589 MiB (87%)\nWriting library : XviD 1.2.1 (UTC 2008-12-04)\n\nAudio\nFormat : MPEG Audio\nFormat version : Version 1\nFormat profile : Layer 3\nCodec ID : 55\nCodec ID/Hint : MP3\nDuration : 1h 26mn\nBit rate mode : Constant\nBit rate : 128 Kbps\nChannel(s) : 2 channels\nSampling rate : 48.0 KHz\nResolution : 16 bits\nStream size : 79.5 MiB (12%)\nAlignment : Aligned on interleaves\nInterleave, duration : 24 ms (0.60 video frame)\nInterleave, preload duration : 504 ms\n\n","torrent":{"xt":"urn:btih:773c8271130ef993a22ec47ab504af87dd915a44","amp;dn":"Michael+Jackson+-+Man+In+The+Mirror+%5B-MJ-+Story%5D+%5BCover%5D+Bubanee","amp;tr":["udp%3A%2F%2Ftracker.openbittorrent.com%3A80","udp%3A%2F%2Fopen.demonii.com%3A1337","udp%3A%2F%2Ftracker.coppersurfer.tk%3A6969","udp%3A%2F%2Fexodus.desync.com%3A6969"],"infoHash":"773c8271130ef993a22ec47ab504af87dd915a44","infoHashBuffer":{"type":"Buffer","data":[119,60,130,113,19,14,249,147,162,46,196,122,181,4,175,135,221,145,90,68]},"announce":[],"urlList":[]}}